<svg xmlns="http://www.w3.org/2000/svg" viewBox="0 0 64 64" role="img" aria-label="Tower Before Dusk icon">
  <defs>
    <linearGradient id="sky" x1="0" x2="0" y1="0" y2="1">
      <stop offset="0" stop-color="#153456"/>
      <stop offset=".56" stop-color="#2f6d78"/>
      <stop offset="1" stop-color="#f2a33b"/>
    </linearGradient>
    <linearGradient id="stone" x1="0" x2="1" y1="0" y2="1">
      <stop offset="0" stop-color="#d0b58a"/>
      <stop offset="1" stop-color="#625a59"/>
    </linearGradient>
  </defs>
  <rect width="64" height="64" rx="14" fill="url(#sky)"/>
  <circle cx="14" cy="48" r="9" fill="#ffd56b"/>
  <path fill="#203748" d="M0 53c9-7 17-9 27-4 10 5 18 4 37-7v22H0z"/>
  <path fill="url(#stone)" d="M38 16h16v35H34V16h4z"/>
  <path fill="#3f4147" d="M36 12h5v6h-5zm8 0h5v6h-5zm8 0h5v6h-5z"/>
  <path fill="#2d3038" d="M34 18h24v5H34z"/>
  <path fill="#f4a12f" d="M42 31a4 4 0 0 1 8 0v8h-8z"/>
  <path fill="#3d3b3d" d="M39 24h4v4h-4zm8 0h4v4h-4zm-8 18h4v4h-4zm8 0h4v4h-4z" opacity=".75"/>
  <path fill="#7bb23a" d="M11 39c-5 1-8-4-7-8 5 1 8 4 9 8zm32 0c5 1 8-4 7-8-5 1-8 4-9 8z"/>
  <circle cx="27" cy="40" r="17" fill="#82b33b"/>
  <path fill="#5d842d" d="M10 44c7 8 22 10 33-2-1 10-8 18-18 18-8 0-14-5-15-16z"/>
  <path fill="#2b251e" d="M18 31c3-9 14-12 23-5-8-1-15 1-23 5z"/>
  <circle cx="21" cy="39" r="3" fill="#161f18"/>
  <circle cx="33" cy="39" r="3" fill="#161f18"/>
  <path fill="#2f3d25" d="M21 50c4 2 9 2 13 0-2 4-10 4-13 0z"/>
  <path fill="#fff0c4" d="M17 44l4 1-3 7zm22 0l-4 1 3 7z"/>
</svg>
